<svg width="800" height="450" viewBox="0 0 800 450" xmlns="http://www.w3.org/2000/svg">
  <defs>
    <linearGradient id="bg" x1="0%" y1="0%" x2="100%" y2="100%">
      <stop offset="0%" stop-color="#0f172a" />
      <stop offset="100%" stop-color="#1e293b" />
    </linearGradient>
    <linearGradient id="card-gradient" x1="0%" y1="0%" x2="100%" y2="100%">
      <stop offset="0%" stop-color="#1e293b" />
      <stop offset="100%" stop-color="#334155" />
    </linearGradient>
    <pattern id="grid" width="30" height="30" patternUnits="userSpaceOnUse">
      <path d="M 30 0 L 0 0 0 30" fill="none" stroke="#94a3b8" stroke-opacity="0.1" stroke-width="1" />
    </pattern>
    <radialGradient id="icon-bg" cx="50%" cy="50%" r="50%" fx="50%" fy="50%">
      <stop offset="0%" stop-color="#8b5cf666" />
      <stop offset="100%" stop-color="#8b5cf600" />
    </radialGradient>
    <filter id="shadow" x="-20%" y="-20%" width="140%" height="140%">
      <feDropShadow dx="0" dy="4" stdDeviation="8" flood-color="#000" flood-opacity="0.3" />
    </filter>
  </defs>
  
  <rect width="800" height="450" fill="url(#bg)" />
  <rect width="800" height="450" fill="url(#grid)" />
  
  <g filter="url(#shadow)">
    <rect x="150" y="100" width="500" height="250" rx="16" fill="url(#card-gradient)" />
  </g>
  
  <circle cx="400" cy="200" r="80" fill="url(#icon-bg)" opacity="0.3" />
  <g transform="translate(400, 200) scale(6)">
    <path d="M9 5H7C5.89543 5 5 5.89543 5 7V19C5 20.1046 5.89543 21 7 21H17C18.1046 21 19 20.1046 19 19V7C19 5.89543 18.1046 5 17 5H15M9 5C9 6.10457 9.89543 7 11 7H13C14.1046 7 15 6.10457 15 5M9 5C9 3.89543 9.89543 3 11 3H13C14.1046 3 15 3.89543 15 5M12 12H15M12 16H15M9 12H9.01M9 16H9.01" fill="none" stroke="#8b5cf6" stroke-width="0.8" stroke-linecap="round" stroke-linejoin="round" transform="translate(-12, -12)" />
  </g>
  
  <rect x="200" y="320" width="400" height="50" rx="8" fill="#1e293b" />
  <text x="400" y="355" font-family="Arial" font-size="24" fill="#f8fafc" text-anchor="middle">Item Details Form</text>
  
  <!-- RECOVR branding -->
  <text x="400" y="40" font-family="Arial" font-size="24" font-weight="bold" text-anchor="middle" fill="#8b5cf6">RECOVR</text>
</svg>